<svg width="84" height="64" viewBox="0 0 84 64" fill="none" xmlns="http://www.w3.org/2000/svg">
<g clip-path="url(#clip0_5_88)">
<path d="M84 56.1843C84 56.1106 84 56.0368 83.928 55.8894C83.928 55.8894 83.928 55.8894 83.928 55.8157C83.928 55.7419 83.856 55.6682 83.856 55.5208C83.7839 55.447 83.7839 55.3733 83.7118 55.2995L79.2453 46.5254C78.5249 44.977 77.3722 43.7973 75.9313 42.9862C77.084 41.8064 77.8045 40.1106 77.8045 38.341V6.78342C77.8045 3.02306 74.8507 0 71.1766 0H12.7513C9.07718 0 6.12351 3.02306 6.12351 6.78342V38.341C6.12351 40.1106 6.77186 41.7328 7.85248 42.9125C6.4837 43.576 5.33104 44.6821 4.53858 46.1566L0.0720456 55.5208C4.39253e-06 55.5944 0 55.7419 0 55.8157C0 55.8894 0 55.9632 0 56.1106V58.8387C0 61.6405 2.23328 64 5.04288 64H78.885C81.6226 64 83.928 61.7142 83.928 58.8387V56.2581C84 56.3318 84 56.2581 84 56.1843ZM12.8233 42.2488C10.8062 42.2488 9.14922 40.553 9.14922 38.4147V9.88021C9.22126 9.88021 9.22127 9.88021 9.29331 9.88021H74.9949V38.4147C74.9949 40.4794 73.3379 42.175 71.3208 42.2488H12.8233ZM12.8233 3.09678H71.2486C73.2659 3.09678 74.9949 4.79264 74.9949 6.9309V7.00461H9.29331C9.22127 7.00461 9.22126 7.00461 9.14922 7.00461V6.9309C9.07718 4.79264 10.8062 3.09678 12.8233 3.09678ZM7.27616 47.5576C8.06862 46.0829 9.58148 45.1981 11.2384 45.1981H12.8233H12.8954H71.3208H71.3928H72.6896C74.4186 45.1981 76.0755 46.2304 76.7959 47.9262V48L80.2539 54.7834H3.81817L7.27616 47.5576ZM81.1183 58.9125C81.1183 60.0922 80.1819 61.1245 78.957 61.1245H5.11493C3.96226 61.1245 2.95369 60.1659 2.95369 58.9125V57.659H81.0463V58.9125H81.1183Z" fill="white"/>
</g>
<defs>
<clipPath id="clip0_5_88">
<rect width="84" height="64" fill="white"/>
</clipPath>
</defs>
</svg>
