<svg width="64" height="83" viewBox="0 0 64 83" fill="none" xmlns="http://www.w3.org/2000/svg">
<path d="M33.7646 74.3785H30.447C29.6706 74.3785 29.0352 75.0217 29.0352 75.8075C29.0352 76.5934 29.6706 77.2366 30.447 77.2366H33.7646C34.5412 77.2366 35.1764 76.5934 35.1764 75.8075C35.1764 75.0217 34.5412 74.3785 33.7646 74.3785Z" fill="white"/>
<path d="M55.6471 2.50083H8.49404C4.68228 2.50083 1.64697 5.64459 1.64697 9.43139V75.3788C1.64697 79.2371 4.75286 82.3095 8.49404 82.3095H55.6471C59.4587 82.3095 62.4941 79.1656 62.4941 75.3788V9.43139C62.5647 5.57315 59.4587 2.50083 55.6471 2.50083ZM59.7411 75.3788C59.7411 77.6653 57.9059 79.4514 55.7175 79.4514H8.56462C6.3058 79.4514 4.54108 77.5939 4.54108 75.3788V9.43139C4.54108 7.14503 6.37638 5.3588 8.56462 5.3588H55.7175C57.9763 5.3588 59.7411 7.21647 59.7411 9.43139V75.3788Z" fill="white" stroke="white" stroke-width="0.5"/>
<path d="M55.1531 10.5747H9.05898C8.2825 10.5747 7.64722 11.2177 7.64722 12.0037C7.64722 12.7896 8.2825 13.4326 9.05898 13.4326H55.1531C55.9297 13.4326 56.5649 12.7896 56.5649 12.0037C56.5649 11.2177 55.9297 10.5747 55.1531 10.5747Z" fill="white"/>
<path d="M55.1531 69.3058H9.05898C8.2825 69.3058 7.64722 69.9488 7.64722 70.7346C7.64722 71.5207 8.2825 72.1636 9.05898 72.1636H55.1531C55.9297 72.1636 56.5649 71.5207 56.5649 70.7346C56.5649 69.9488 55.9297 69.3058 55.1531 69.3058Z" fill="white"/>
</svg>
