<svg width="83" height="66" viewBox="0 0 83 66" fill="none" xmlns="http://www.w3.org/2000/svg">
<g clip-path="url(#clip0_5_86)">
<path d="M74.8557 1.2309H6.75208C3.32404 1.2309 0.519287 3.78756 0.519287 6.91239V41.3422C0.519287 44.4671 3.32404 47.0237 6.75208 47.0237H32.5766V56.7391H30.2704C28.463 56.7391 27.0294 58.0459 27.0294 59.6935V62.0418C27.0294 63.6895 28.463 64.9962 30.2704 64.9962H51.8983C53.7057 64.9962 55.1393 63.6895 55.1393 62.0418V59.6935C55.1393 58.0459 53.7057 56.7391 51.8983 56.7391H49.0934V47.0237H74.9181C78.346 47.0237 81.1508 44.4671 81.1508 41.3422V6.91239C81.1508 3.78756 78.3461 1.2309 74.8557 1.2309ZM6.81442 3.50349H74.9181C76.9749 3.50349 78.6577 5.03749 78.6577 6.91239V38.2174H3.0124V6.91239C3.0124 5.03749 4.69527 3.50349 6.81442 3.50349ZM52.6462 59.6935V62.0418C52.6462 62.3827 52.3345 62.7235 51.8983 62.7235H30.2704C29.8966 62.7235 29.5225 62.4395 29.5225 62.0418V59.6935C29.5225 59.3525 29.8342 59.0117 30.2704 59.0117H33.8855H47.847H51.8983C52.2723 59.0117 52.6462 59.2957 52.6462 59.6935ZM46.6004 56.7391H35.1321V47.0237H46.6004V56.7391ZM74.8557 44.7511H47.7847H33.8232H6.75208C4.69525 44.7511 3.0124 43.2171 3.0124 41.3422V40.49H78.6577V41.3422C78.6577 43.2171 76.9749 44.7511 74.8557 44.7511Z" fill="white" stroke="white" stroke-width="0.5"/>
</g>
<defs>
<clipPath id="clip0_5_86">
<rect width="83" height="66" fill="white"/>
</clipPath>
</defs>
</svg>
